<mxfile host="www.draw.io" modified="2019-11-18T16:16:16.272Z" agent="Mozilla/5.0 (Macintosh; Intel Mac OS X 10_14_6) AppleWebKit/537.36 (KHTML, like Gecko) Chrome/78.0.3904.97 Safari/537.36" etag="2-unKbhBIoWFgd_7i3cD" version="12.2.6" type="github" pages="8">
  <diagram name="Page-1" id="74e2e168-ea6b-b213-b513-2b3c1d86103e">
    <mxGraphModel dx="932" dy="537" grid="1" gridSize="10" guides="1" tooltips="1" connect="1" arrows="1" fold="1" page="1" pageScale="1" pageWidth="1100" pageHeight="850" background="#ffffff" math="0" shadow="0">
      <root>
        <mxCell id="0"/>
        <mxCell id="1" parent="0"/>
        <mxCell id="77e6c97f196da883-1" value="信用卡数据中台" style="swimlane;html=1;childLayout=stackLayout;startSize=20;rounded=0;shadow=0;labelBackgroundColor=none;strokeColor=#000000;strokeWidth=1;fillColor=#ffffff;fontFamily=Verdana;fontSize=8;fontColor=#000000;align=center;" parent="1" vertex="1">
          <mxGeometry x="40" y="20" width="1121" height="550" as="geometry"/>
        </mxCell>
        <mxCell id="9AOLdwwiTeYKFx4a9tRz-8" value="EXTERNAL" style="swimlane;html=1;startSize=20;" parent="77e6c97f196da883-1" vertex="1">
          <mxGeometry y="20" width="160" height="530" as="geometry"/>
        </mxCell>
        <mxCell id="9AOLdwwiTeYKFx4a9tRz-9" value="MQ" style="rounded=1;whiteSpace=wrap;html=1;shadow=0;labelBackgroundColor=none;strokeColor=#000000;strokeWidth=1;fillColor=#ffffff;fontFamily=Verdana;fontSize=8;fontColor=#000000;align=center;" parent="9AOLdwwiTeYKFx4a9tRz-8" vertex="1">
          <mxGeometry x="30" y="205" width="100" height="60" as="geometry"/>
        </mxCell>
        <mxCell id="9AOLdwwiTeYKFx4a9tRz-54" value="API" style="rounded=1;whiteSpace=wrap;html=1;shadow=0;labelBackgroundColor=none;strokeColor=#000000;strokeWidth=1;fillColor=#ffffff;fontFamily=Verdana;fontSize=8;fontColor=#000000;align=center;" parent="9AOLdwwiTeYKFx4a9tRz-8" vertex="1">
          <mxGeometry x="30" y="305" width="100" height="60" as="geometry"/>
        </mxCell>
        <mxCell id="9AOLdwwiTeYKFx4a9tRz-57" value="MQ" style="rounded=1;whiteSpace=wrap;html=1;shadow=0;labelBackgroundColor=none;strokeColor=#000000;strokeWidth=1;fillColor=#ffffff;fontFamily=Verdana;fontSize=8;fontColor=#000000;align=center;" parent="9AOLdwwiTeYKFx4a9tRz-8" vertex="1">
          <mxGeometry x="30" y="435" width="100" height="60" as="geometry"/>
        </mxCell>
        <mxCell id="77e6c97f196da883-2" value="RDCS" style="swimlane;html=1;startSize=20;" parent="77e6c97f196da883-1" vertex="1">
          <mxGeometry x="160" y="20" width="161" height="530" as="geometry"/>
        </mxCell>
        <mxCell id="77e6c97f196da883-8" value="DATABASE&lt;br&gt;SCANNER" style="rounded=1;whiteSpace=wrap;html=1;shadow=0;labelBackgroundColor=none;strokeColor=#000000;strokeWidth=1;fillColor=#ffffff;fontFamily=Verdana;fontSize=8;fontColor=#000000;align=center;" parent="77e6c97f196da883-2" vertex="1">
          <mxGeometry x="30" y="90" width="100" height="60" as="geometry"/>
        </mxCell>
        <mxCell id="77e6c97f196da883-3" value="CONSUMER" style="swimlane;html=1;startSize=20;" parent="77e6c97f196da883-1" vertex="1">
          <mxGeometry x="321" y="20" width="160" height="530" as="geometry"/>
        </mxCell>
        <mxCell id="9AOLdwwiTeYKFx4a9tRz-4" value="" style="edgeStyle=orthogonalEdgeStyle;rounded=0;orthogonalLoop=1;jettySize=auto;html=1;" parent="77e6c97f196da883-3" source="77e6c97f196da883-11" target="77e6c97f196da883-9" edge="1">
          <mxGeometry relative="1" as="geometry"/>
        </mxCell>
        <mxCell id="77e6c97f196da883-11" value="INPUT&lt;br&gt;PROCESSOR" style="rounded=1;whiteSpace=wrap;html=1;shadow=0;labelBackgroundColor=none;strokeColor=#000000;strokeWidth=1;fillColor=#ffffff;fontFamily=Verdana;fontSize=8;fontColor=#000000;align=center;" parent="77e6c97f196da883-3" vertex="1">
          <mxGeometry x="30" y="140" width="100" height="60" as="geometry"/>
        </mxCell>
        <mxCell id="9AOLdwwiTeYKFx4a9tRz-5" value="" style="edgeStyle=orthogonalEdgeStyle;rounded=0;orthogonalLoop=1;jettySize=auto;html=1;" parent="77e6c97f196da883-3" source="77e6c97f196da883-9" target="9AOLdwwiTeYKFx4a9tRz-2" edge="1">
          <mxGeometry relative="1" as="geometry"/>
        </mxCell>
        <mxCell id="77e6c97f196da883-9" value="ROUTER" style="rounded=1;whiteSpace=wrap;html=1;shadow=0;labelBackgroundColor=none;strokeColor=#000000;strokeWidth=1;fillColor=#ffffff;fontFamily=Verdana;fontSize=8;fontColor=#000000;align=center;" parent="77e6c97f196da883-3" vertex="1">
          <mxGeometry x="30" y="240" width="100" height="60" as="geometry"/>
        </mxCell>
        <mxCell id="9AOLdwwiTeYKFx4a9tRz-2" value="OUTPUT&lt;br&gt;PROCESSOR" style="rounded=1;whiteSpace=wrap;html=1;shadow=0;labelBackgroundColor=none;strokeColor=#000000;strokeWidth=1;fillColor=#ffffff;fontFamily=Verdana;fontSize=8;fontColor=#000000;align=center;" parent="77e6c97f196da883-3" vertex="1">
          <mxGeometry x="30" y="435" width="100" height="60" as="geometry"/>
        </mxCell>
        <mxCell id="tssTY5_V55jJpcKWYizu-1" value="EVENT&lt;br&gt;PROCESSOR" style="rounded=1;whiteSpace=wrap;html=1;shadow=0;labelBackgroundColor=none;strokeColor=#000000;strokeWidth=1;fillColor=#ffffff;fontFamily=Verdana;fontSize=8;fontColor=#000000;align=center;" parent="77e6c97f196da883-3" vertex="1">
          <mxGeometry x="30" y="325" width="100" height="60" as="geometry"/>
        </mxCell>
        <mxCell id="nX9Z5AqFMC2l883IT-i0-8" value="" style="edgeStyle=orthogonalEdgeStyle;rounded=0;orthogonalLoop=1;jettySize=auto;html=1;" parent="77e6c97f196da883-3" source="nX9Z5AqFMC2l883IT-i0-7" target="77e6c97f196da883-11" edge="1">
          <mxGeometry relative="1" as="geometry"/>
        </mxCell>
        <mxCell id="nX9Z5AqFMC2l883IT-i0-7" value="REPLAYER" style="rounded=1;whiteSpace=wrap;html=1;shadow=0;labelBackgroundColor=none;strokeColor=#000000;strokeWidth=1;fillColor=#ffffff;fontFamily=Verdana;fontSize=8;fontColor=#000000;align=center;" parent="77e6c97f196da883-3" vertex="1">
          <mxGeometry x="30" y="40" width="100" height="60" as="geometry"/>
        </mxCell>
        <mxCell id="nX9Z5AqFMC2l883IT-i0-10" style="edgeStyle=orthogonalEdgeStyle;rounded=1;html=1;labelBackgroundColor=none;startArrow=none;startFill=0;startSize=5;endArrow=classicThin;endFill=1;endSize=5;jettySize=auto;orthogonalLoop=1;strokeColor=#000000;strokeWidth=1;fontFamily=Verdana;fontSize=8;fontColor=#000000;entryX=1;entryY=0.5;entryDx=0;entryDy=0;exitX=1;exitY=0.5;exitDx=0;exitDy=0;" parent="77e6c97f196da883-3" source="nX9Z5AqFMC2l883IT-i0-7" target="77e6c97f196da883-9" edge="1">
          <mxGeometry relative="1" as="geometry">
            <mxPoint x="520" y="215.66666666666674" as="sourcePoint"/>
            <mxPoint x="140" y="350.33333333333326" as="targetPoint"/>
            <Array as="points">
              <mxPoint x="149" y="70"/>
              <mxPoint x="149" y="270"/>
            </Array>
          </mxGeometry>
        </mxCell>
        <mxCell id="77e6c97f196da883-4" value="REALTIME-WS" style="swimlane;html=1;startSize=20;" parent="77e6c97f196da883-1" vertex="1">
          <mxGeometry x="481" y="20" width="160" height="530" as="geometry"/>
        </mxCell>
        <mxCell id="77e6c97f196da883-12" value="FLOW RULE" style="rounded=1;whiteSpace=wrap;html=1;shadow=0;labelBackgroundColor=none;strokeColor=#000000;strokeWidth=1;fillColor=#ffffff;fontFamily=Verdana;fontSize=8;fontColor=#000000;align=center;" parent="77e6c97f196da883-4" vertex="1">
          <mxGeometry x="30" y="325" width="100" height="60" as="geometry"/>
        </mxCell>
        <mxCell id="77e6c97f196da883-15" value="DECISION RULE" style="rounded=1;whiteSpace=wrap;html=1;shadow=0;labelBackgroundColor=none;strokeColor=#000000;strokeWidth=1;fillColor=#ffffff;fontFamily=Verdana;fontSize=8;fontColor=#000000;align=center;" parent="77e6c97f196da883-4" vertex="1">
          <mxGeometry x="30" y="225" width="100" height="60" as="geometry"/>
        </mxCell>
        <mxCell id="77e6c97f196da883-26" style="edgeStyle=orthogonalEdgeStyle;rounded=1;html=1;labelBackgroundColor=none;startArrow=none;startFill=0;startSize=5;endArrow=classicThin;endFill=1;endSize=5;jettySize=auto;orthogonalLoop=1;strokeColor=#000000;strokeWidth=1;fontFamily=Verdana;fontSize=8;fontColor=#000000;exitX=0.5;exitY=1;exitDx=0;exitDy=0;entryX=0.5;entryY=0;entryDx=0;entryDy=0;" parent="77e6c97f196da883-1" source="77e6c97f196da883-8" target="9AOLdwwiTeYKFx4a9tRz-9" edge="1">
          <mxGeometry relative="1" as="geometry"/>
        </mxCell>
        <mxCell id="77e6c97f196da883-28" style="edgeStyle=orthogonalEdgeStyle;rounded=1;html=1;labelBackgroundColor=none;startArrow=none;startFill=0;startSize=5;endArrow=classicThin;endFill=1;endSize=5;jettySize=auto;orthogonalLoop=1;strokeColor=#000000;strokeWidth=1;fontFamily=Verdana;fontSize=8;fontColor=#000000;entryX=0;entryY=0.75;entryDx=0;entryDy=0;exitX=1;exitY=0.75;exitDx=0;exitDy=0;" parent="77e6c97f196da883-1" source="tssTY5_V55jJpcKWYizu-1" target="77e6c97f196da883-12" edge="1">
          <mxGeometry relative="1" as="geometry">
            <mxPoint x="451" y="290" as="sourcePoint"/>
            <Array as="points">
              <mxPoint x="500" y="390"/>
              <mxPoint x="500" y="390"/>
            </Array>
          </mxGeometry>
        </mxCell>
        <mxCell id="9AOLdwwiTeYKFx4a9tRz-55" style="edgeStyle=orthogonalEdgeStyle;rounded=1;html=1;labelBackgroundColor=none;startArrow=none;startFill=0;startSize=5;endArrow=classicThin;endFill=1;endSize=5;jettySize=auto;orthogonalLoop=1;strokeColor=#000000;strokeWidth=1;fontFamily=Verdana;fontSize=8;fontColor=#000000;exitX=1;exitY=0.5;exitDx=0;exitDy=0;entryX=0;entryY=0.5;entryDx=0;entryDy=0;" parent="77e6c97f196da883-1" source="9AOLdwwiTeYKFx4a9tRz-54" target="77e6c97f196da883-11" edge="1">
          <mxGeometry relative="1" as="geometry">
            <mxPoint x="511" y="285" as="sourcePoint"/>
            <mxPoint x="360" y="225" as="targetPoint"/>
            <Array as="points">
              <mxPoint x="330" y="355"/>
              <mxPoint x="330" y="190"/>
            </Array>
          </mxGeometry>
        </mxCell>
        <mxCell id="9AOLdwwiTeYKFx4a9tRz-56" style="edgeStyle=orthogonalEdgeStyle;rounded=1;html=1;labelBackgroundColor=none;startArrow=none;startFill=0;startSize=5;endArrow=classicThin;endFill=1;endSize=5;jettySize=auto;orthogonalLoop=1;strokeColor=#000000;strokeWidth=1;fontFamily=Verdana;fontSize=8;fontColor=#000000;exitX=1;exitY=0.5;exitDx=0;exitDy=0;entryX=0;entryY=0.5;entryDx=0;entryDy=0;" parent="77e6c97f196da883-1" source="9AOLdwwiTeYKFx4a9tRz-9" target="77e6c97f196da883-11" edge="1">
          <mxGeometry relative="1" as="geometry">
            <mxPoint x="140" y="365" as="sourcePoint"/>
            <mxPoint x="411" y="180" as="targetPoint"/>
            <Array as="points">
              <mxPoint x="330" y="255"/>
              <mxPoint x="330" y="190"/>
            </Array>
          </mxGeometry>
        </mxCell>
        <mxCell id="9AOLdwwiTeYKFx4a9tRz-59" style="edgeStyle=orthogonalEdgeStyle;rounded=1;html=1;labelBackgroundColor=none;startArrow=none;startFill=0;startSize=5;endArrow=classicThin;endFill=1;endSize=5;jettySize=auto;orthogonalLoop=1;strokeColor=#000000;strokeWidth=1;fontFamily=Verdana;fontSize=8;fontColor=#000000;exitX=0;exitY=0.5;exitDx=0;exitDy=0;entryX=1;entryY=0.5;entryDx=0;entryDy=0;" parent="77e6c97f196da883-1" source="9AOLdwwiTeYKFx4a9tRz-2" target="9AOLdwwiTeYKFx4a9tRz-57" edge="1">
          <mxGeometry relative="1" as="geometry">
            <mxPoint x="140" y="470" as="sourcePoint"/>
            <mxPoint x="411" y="285" as="targetPoint"/>
            <Array as="points">
              <mxPoint x="300" y="485"/>
              <mxPoint x="300" y="485"/>
            </Array>
          </mxGeometry>
        </mxCell>
        <mxCell id="9AOLdwwiTeYKFx4a9tRz-65" style="edgeStyle=orthogonalEdgeStyle;rounded=1;html=1;labelBackgroundColor=none;startArrow=none;startFill=0;startSize=5;endArrow=classicThin;endFill=1;endSize=5;jettySize=auto;orthogonalLoop=1;strokeColor=#000000;strokeWidth=1;fontFamily=Verdana;fontSize=8;fontColor=#000000;exitX=1;exitY=0.25;exitDx=0;exitDy=0;entryX=0;entryY=0.5;entryDx=0;entryDy=0;" parent="77e6c97f196da883-1" source="tssTY5_V55jJpcKWYizu-1" target="9AOLdwwiTeYKFx4a9tRz-61" edge="1">
          <mxGeometry relative="1" as="geometry">
            <mxPoint x="880" y="195" as="sourcePoint"/>
            <mxPoint x="720" y="150" as="targetPoint"/>
            <Array as="points">
              <mxPoint x="490" y="360"/>
              <mxPoint x="490" y="225"/>
            </Array>
          </mxGeometry>
        </mxCell>
        <mxCell id="tssTY5_V55jJpcKWYizu-2" style="edgeStyle=orthogonalEdgeStyle;rounded=1;html=1;labelBackgroundColor=none;startArrow=none;startFill=0;startSize=5;endArrow=classicThin;endFill=1;endSize=5;jettySize=auto;orthogonalLoop=1;strokeColor=#000000;strokeWidth=1;fontFamily=Verdana;fontSize=8;fontColor=#000000;exitX=1;exitY=0.5;exitDx=0;exitDy=0;entryX=0;entryY=0.5;entryDx=0;entryDy=0;" parent="77e6c97f196da883-1" source="tssTY5_V55jJpcKWYizu-1" target="77e6c97f196da883-15" edge="1">
          <mxGeometry relative="1" as="geometry">
            <mxPoint x="450.5" y="375" as="sourcePoint"/>
            <mxPoint x="560.5" y="225" as="targetPoint"/>
            <Array as="points">
              <mxPoint x="500" y="375"/>
              <mxPoint x="500" y="275"/>
            </Array>
          </mxGeometry>
        </mxCell>
        <mxCell id="X4fi9G5PNfgSpJ7aW9XN-4" value="" style="edgeStyle=orthogonalEdgeStyle;rounded=0;orthogonalLoop=1;jettySize=auto;html=1;startArrow=none;startFill=0;" parent="77e6c97f196da883-1" source="9AOLdwwiTeYKFx4a9tRz-61" target="X4fi9G5PNfgSpJ7aW9XN-3" edge="1">
          <mxGeometry relative="1" as="geometry"/>
        </mxCell>
        <mxCell id="77e6c97f196da883-5" value="REALTIME-ENGINE" style="swimlane;html=1;startSize=20;dashed=1;" parent="77e6c97f196da883-1" vertex="1">
          <mxGeometry x="641" y="20" width="160" height="530" as="geometry"/>
        </mxCell>
        <mxCell id="w32uVNTIpN8FsWVMrymS-1" value="VARIRABLE&lt;br&gt;RULE" style="rounded=1;whiteSpace=wrap;html=1;shadow=0;labelBackgroundColor=none;strokeColor=#000000;strokeWidth=1;fillColor=#ffffff;fontFamily=Verdana;fontSize=8;fontColor=#000000;align=center;" parent="77e6c97f196da883-5" vertex="1">
          <mxGeometry x="30" y="325" width="100" height="60" as="geometry"/>
        </mxCell>
        <mxCell id="77e6c97f196da883-6" value="REALTIME-DW" style="swimlane;html=1;startSize=20;" parent="77e6c97f196da883-1" vertex="1">
          <mxGeometry x="801" y="20" width="160" height="530" as="geometry"/>
        </mxCell>
        <mxCell id="9AOLdwwiTeYKFx4a9tRz-61" value="VARIABLE SERVICE" style="rounded=1;whiteSpace=wrap;html=1;shadow=0;labelBackgroundColor=none;strokeColor=#000000;strokeWidth=1;fillColor=#ffffff;fontFamily=Verdana;fontSize=8;fontColor=#000000;align=center;" parent="77e6c97f196da883-6" vertex="1">
          <mxGeometry x="30" y="175" width="100" height="60" as="geometry"/>
        </mxCell>
        <mxCell id="9AOLdwwiTeYKFx4a9tRz-60" value="VARIRABLE&lt;br&gt;CALCULATION" style="rounded=1;whiteSpace=wrap;html=1;shadow=0;labelBackgroundColor=none;strokeColor=#000000;strokeWidth=1;fillColor=#ffffff;fontFamily=Verdana;fontSize=8;fontColor=#000000;align=center;" parent="77e6c97f196da883-6" vertex="1">
          <mxGeometry x="30" y="325" width="100" height="60" as="geometry"/>
        </mxCell>
        <mxCell id="w32uVNTIpN8FsWVMrymS-2" style="edgeStyle=orthogonalEdgeStyle;rounded=1;html=1;labelBackgroundColor=none;startArrow=none;startFill=0;startSize=5;endArrow=classicThin;endFill=1;endSize=5;jettySize=auto;orthogonalLoop=1;strokeColor=#000000;strokeWidth=1;fontFamily=Verdana;fontSize=8;fontColor=#000000;exitX=0.5;exitY=1;exitDx=0;exitDy=0;entryX=0.5;entryY=0;entryDx=0;entryDy=0;" parent="77e6c97f196da883-6" source="9AOLdwwiTeYKFx4a9tRz-61" target="9AOLdwwiTeYKFx4a9tRz-60" edge="1">
          <mxGeometry relative="1" as="geometry">
            <mxPoint x="90" y="245" as="sourcePoint"/>
            <mxPoint x="-70" y="335" as="targetPoint"/>
            <Array as="points">
              <mxPoint x="80" y="280"/>
              <mxPoint x="80" y="280"/>
            </Array>
          </mxGeometry>
        </mxCell>
        <mxCell id="77e6c97f196da883-7" value="DISP" style="swimlane;html=1;startSize=20;" parent="77e6c97f196da883-1" vertex="1">
          <mxGeometry x="961" y="20" width="160" height="530" as="geometry"/>
        </mxCell>
        <mxCell id="X4fi9G5PNfgSpJ7aW9XN-3" value="DATA&lt;br&gt;SERVICE" style="rounded=1;whiteSpace=wrap;html=1;shadow=0;labelBackgroundColor=none;strokeColor=#000000;strokeWidth=1;fillColor=#ffffff;fontFamily=Verdana;fontSize=8;fontColor=#000000;align=center;" parent="77e6c97f196da883-7" vertex="1">
          <mxGeometry x="30" y="175" width="100" height="60" as="geometry"/>
        </mxCell>
        <mxCell id="9AOLdwwiTeYKFx4a9tRz-66" style="edgeStyle=orthogonalEdgeStyle;rounded=1;html=1;labelBackgroundColor=none;startArrow=none;startFill=0;startSize=5;endArrow=classicThin;endFill=1;endSize=5;jettySize=auto;orthogonalLoop=1;strokeColor=#000000;strokeWidth=1;fontFamily=Verdana;fontSize=8;fontColor=#000000;exitX=0.25;exitY=1;exitDx=0;exitDy=0;entryX=0.5;entryY=0;entryDx=0;entryDy=0;" parent="77e6c97f196da883-1" source="9AOLdwwiTeYKFx4a9tRz-61" target="w32uVNTIpN8FsWVMrymS-1" edge="1">
          <mxGeometry relative="1" as="geometry">
            <mxPoint x="511" y="300" as="sourcePoint"/>
            <mxPoint x="810" y="305" as="targetPoint"/>
            <Array as="points">
              <mxPoint x="856" y="310"/>
              <mxPoint x="721" y="310"/>
            </Array>
          </mxGeometry>
        </mxCell>
      </root>
    </mxGraphModel>
  </diagram>
  <diagram id="RrnXslmxj0kw22n0IAKz" name="Page-2">
    <mxGraphModel dx="932" dy="537" grid="1" gridSize="10" guides="1" tooltips="1" connect="1" arrows="1" fold="1" page="1" pageScale="1" pageWidth="827" pageHeight="1169" math="0" shadow="0">
      <root>
        <mxCell id="IvU9EpXIFTZm0_zdO61G-0"/>
        <mxCell id="IvU9EpXIFTZm0_zdO61G-1" parent="IvU9EpXIFTZm0_zdO61G-0"/>
        <mxCell id="4bxWFl2vUNwD9Jtad7jr-1" value="通用数据备份、快照" style="rounded=1;whiteSpace=wrap;html=1;" parent="IvU9EpXIFTZm0_zdO61G-1" vertex="1">
          <mxGeometry x="30" y="200" width="280" height="50" as="geometry"/>
        </mxCell>
        <mxCell id="4bxWFl2vUNwD9Jtad7jr-2" value="通用日志监控&lt;br&gt;（CAT）" style="rounded=1;whiteSpace=wrap;html=1;" parent="IvU9EpXIFTZm0_zdO61G-1" vertex="1">
          <mxGeometry x="720" y="20" width="90" height="295" as="geometry"/>
        </mxCell>
        <mxCell id="4bxWFl2vUNwD9Jtad7jr-3" value="数据输入&lt;br&gt;（格式化/清洗/初筛）" style="rounded=1;whiteSpace=wrap;html=1;" parent="IvU9EpXIFTZm0_zdO61G-1" vertex="1">
          <mxGeometry x="150" y="50" width="90" height="130" as="geometry"/>
        </mxCell>
        <mxCell id="4bxWFl2vUNwD9Jtad7jr-4" value="事件路由" style="rounded=1;whiteSpace=wrap;html=1;" parent="IvU9EpXIFTZm0_zdO61G-1" vertex="1">
          <mxGeometry x="283" y="50" width="90" height="130" as="geometry"/>
        </mxCell>
        <mxCell id="4bxWFl2vUNwD9Jtad7jr-5" value="数据输出&lt;br&gt;（入库/推送）" style="rounded=1;whiteSpace=wrap;html=1;" parent="IvU9EpXIFTZm0_zdO61G-1" vertex="1">
          <mxGeometry x="520" y="50" width="90" height="130" as="geometry"/>
        </mxCell>
        <mxCell id="4bxWFl2vUNwD9Jtad7jr-9" value="事件处理&lt;br&gt;（数据关联、字段映射、打标签、调用计算规则）" style="rounded=1;whiteSpace=wrap;html=1;" parent="IvU9EpXIFTZm0_zdO61G-1" vertex="1">
          <mxGeometry x="401.5" y="50" width="90" height="130" as="geometry"/>
        </mxCell>
        <mxCell id="uZV8HSnLTifIu20DkNxQ-0" value="ROUTER" style="text;html=1;resizable=0;points=[];autosize=1;align=center;verticalAlign=top;spacingTop=-4;" parent="IvU9EpXIFTZm0_zdO61G-1" vertex="1">
          <mxGeometry x="293" y="20" width="70" height="20" as="geometry"/>
        </mxCell>
        <mxCell id="uZV8HSnLTifIu20DkNxQ-1" value="EVENT&lt;br&gt;PROCESSOR" style="text;html=1;resizable=0;points=[];autosize=1;align=center;verticalAlign=top;spacingTop=-4;" parent="IvU9EpXIFTZm0_zdO61G-1" vertex="1">
          <mxGeometry x="401.5" y="15" width="90" height="30" as="geometry"/>
        </mxCell>
        <mxCell id="uZV8HSnLTifIu20DkNxQ-2" value="OUTPUT&lt;br&gt;PROCESSOR" style="text;html=1;resizable=0;points=[];autosize=1;align=center;verticalAlign=top;spacingTop=-4;" parent="IvU9EpXIFTZm0_zdO61G-1" vertex="1">
          <mxGeometry x="520" y="15" width="90" height="30" as="geometry"/>
        </mxCell>
        <mxCell id="pY_sRm8eTLjLj404glfG-0" value="数据回放" style="rounded=1;whiteSpace=wrap;html=1;" parent="IvU9EpXIFTZm0_zdO61G-1" vertex="1">
          <mxGeometry x="330" y="200" width="280" height="50" as="geometry"/>
        </mxCell>
        <mxCell id="pY_sRm8eTLjLj404glfG-4" value="ElasticSearch、Redis、AeroSpike" style="shape=datastore;whiteSpace=wrap;html=1;align=center;" parent="IvU9EpXIFTZm0_zdO61G-1" vertex="1">
          <mxGeometry x="30" y="260" width="580" height="60" as="geometry"/>
        </mxCell>
        <mxCell id="tRCbxD-ZT_ydWrSXqJOJ-0" value="INPUT&lt;br&gt;PROCESSOR" style="text;html=1;resizable=0;points=[];autosize=1;align=center;verticalAlign=top;spacingTop=-4;" parent="IvU9EpXIFTZm0_zdO61G-1" vertex="1">
          <mxGeometry x="150" y="15" width="90" height="30" as="geometry"/>
        </mxCell>
        <mxCell id="tRCbxD-ZT_ydWrSXqJOJ-1" value="数据收集&lt;br&gt;（MQ监听、&lt;br&gt;API监听）" style="rounded=1;whiteSpace=wrap;html=1;" parent="IvU9EpXIFTZm0_zdO61G-1" vertex="1">
          <mxGeometry x="30" y="45" width="90" height="130" as="geometry"/>
        </mxCell>
        <mxCell id="tRCbxD-ZT_ydWrSXqJOJ-2" value="SERVICE" style="text;html=1;resizable=0;points=[];autosize=1;align=center;verticalAlign=top;spacingTop=-4;" parent="IvU9EpXIFTZm0_zdO61G-1" vertex="1">
          <mxGeometry x="40" y="20" width="70" height="20" as="geometry"/>
        </mxCell>
      </root>
    </mxGraphModel>
  </diagram>
  <diagram id="EICIjYkw1w4u8L2vJUYA" name="Page-3">
    <mxGraphModel dx="932" dy="537" grid="1" gridSize="10" guides="1" tooltips="1" connect="1" arrows="1" fold="1" page="1" pageScale="1" pageWidth="827" pageHeight="1169" math="0" shadow="0">
      <root>
        <mxCell id="K_XLk1ca43ODohlfoCfL-0"/>
        <mxCell id="K_XLk1ca43ODohlfoCfL-1" parent="K_XLk1ca43ODohlfoCfL-0"/>
        <mxCell id="K_XLk1ca43ODohlfoCfL-3" value="实时数据处理领域" style="rounded=1;whiteSpace=wrap;html=1;" parent="K_XLk1ca43ODohlfoCfL-1" vertex="1">
          <mxGeometry x="130" y="20" width="510" height="60" as="geometry"/>
        </mxCell>
        <mxCell id="K_XLk1ca43ODohlfoCfL-4" value="数据源映射" style="rounded=0;whiteSpace=wrap;html=1;" parent="K_XLk1ca43ODohlfoCfL-1" vertex="1">
          <mxGeometry x="150" y="180" width="100" height="30" as="geometry"/>
        </mxCell>
        <mxCell id="K_XLk1ca43ODohlfoCfL-5" value="&lt;span style=&quot;white-space: normal&quot;&gt;数据子域&lt;/span&gt;" style="rounded=1;whiteSpace=wrap;html=1;" parent="K_XLk1ca43ODohlfoCfL-1" vertex="1">
          <mxGeometry x="140" y="100" width="120" height="60" as="geometry"/>
        </mxCell>
        <mxCell id="K_XLk1ca43ODohlfoCfL-6" value="数据对象" style="rounded=0;whiteSpace=wrap;html=1;" parent="K_XLk1ca43ODohlfoCfL-1" vertex="1">
          <mxGeometry x="150" y="255" width="100" height="30" as="geometry"/>
        </mxCell>
        <mxCell id="K_XLk1ca43ODohlfoCfL-7" value="&lt;span style=&quot;white-space: normal&quot;&gt;数据处理子域&lt;/span&gt;" style="rounded=1;whiteSpace=wrap;html=1;" parent="K_XLk1ca43ODohlfoCfL-1" vertex="1">
          <mxGeometry x="320" y="100" width="120" height="60" as="geometry"/>
        </mxCell>
        <mxCell id="K_XLk1ca43ODohlfoCfL-12" value="处理流程" style="rounded=0;whiteSpace=wrap;html=1;" parent="K_XLk1ca43ODohlfoCfL-1" vertex="1">
          <mxGeometry x="330" y="172.5" width="100" height="30" as="geometry"/>
        </mxCell>
        <mxCell id="K_XLk1ca43ODohlfoCfL-13" value="上下文" style="rounded=0;whiteSpace=wrap;html=1;" parent="K_XLk1ca43ODohlfoCfL-1" vertex="1">
          <mxGeometry x="330" y="262.5" width="100" height="30" as="geometry"/>
        </mxCell>
        <mxCell id="K_XLk1ca43ODohlfoCfL-14" value="数据输出子域" style="rounded=1;whiteSpace=wrap;html=1;" parent="K_XLk1ca43ODohlfoCfL-1" vertex="1">
          <mxGeometry x="500" y="100" width="120" height="60" as="geometry"/>
        </mxCell>
        <mxCell id="K_XLk1ca43ODohlfoCfL-15" value="数据源配置" style="rounded=0;whiteSpace=wrap;html=1;" parent="K_XLk1ca43ODohlfoCfL-1" vertex="1">
          <mxGeometry x="510" y="180" width="100" height="30" as="geometry"/>
        </mxCell>
        <mxCell id="K_XLk1ca43ODohlfoCfL-16" value="数据对象" style="rounded=0;whiteSpace=wrap;html=1;" parent="K_XLk1ca43ODohlfoCfL-1" vertex="1">
          <mxGeometry x="510" y="230" width="100" height="30" as="geometry"/>
        </mxCell>
        <mxCell id="7U4YjivAoNIg2i1LAVIP-0" value="加工逻辑" style="rounded=0;whiteSpace=wrap;html=1;" parent="K_XLk1ca43ODohlfoCfL-1" vertex="1">
          <mxGeometry x="330" y="217.5" width="100" height="30" as="geometry"/>
        </mxCell>
        <mxCell id="g0yb1EStglz2yf5GwQpA-0" value="数据格式化&lt;br&gt;数据清洗" style="rounded=0;whiteSpace=wrap;html=1;" parent="K_XLk1ca43ODohlfoCfL-1" vertex="1">
          <mxGeometry x="150" y="217.5" width="100" height="30" as="geometry"/>
        </mxCell>
      </root>
    </mxGraphModel>
  </diagram>
  <diagram id="4I_G9_OZfaZ53klVVcbU" name="Page-4">
    <mxGraphModel dx="932" dy="537" grid="1" gridSize="10" guides="1" tooltips="1" connect="1" arrows="1" fold="1" page="1" pageScale="1" pageWidth="827" pageHeight="1169" math="0" shadow="0">
      <root>
        <mxCell id="Sm6wDZHAmXWlNj7RumEk-0"/>
        <mxCell id="Sm6wDZHAmXWlNj7RumEk-1" parent="Sm6wDZHAmXWlNj7RumEk-0"/>
        <mxCell id="6C5OWczg_sf_DhOtf-9l-8" style="edgeStyle=orthogonalEdgeStyle;rounded=0;orthogonalLoop=1;jettySize=auto;html=1;" parent="Sm6wDZHAmXWlNj7RumEk-1" source="xm51TeOPicrfB7E0WJey-0" edge="1">
          <mxGeometry relative="1" as="geometry">
            <mxPoint x="90" y="180" as="targetPoint"/>
          </mxGeometry>
        </mxCell>
        <mxCell id="6C5OWczg_sf_DhOtf-9l-9" value="" style="edgeStyle=orthogonalEdgeStyle;rounded=0;orthogonalLoop=1;jettySize=auto;html=1;" parent="Sm6wDZHAmXWlNj7RumEk-1" source="xm51TeOPicrfB7E0WJey-0" edge="1">
          <mxGeometry relative="1" as="geometry">
            <mxPoint x="190" y="180" as="targetPoint"/>
          </mxGeometry>
        </mxCell>
        <mxCell id="6C5OWczg_sf_DhOtf-9l-10" style="edgeStyle=orthogonalEdgeStyle;rounded=0;orthogonalLoop=1;jettySize=auto;html=1;" parent="Sm6wDZHAmXWlNj7RumEk-1" source="xm51TeOPicrfB7E0WJey-0" edge="1">
          <mxGeometry relative="1" as="geometry">
            <mxPoint x="290" y="180" as="targetPoint"/>
          </mxGeometry>
        </mxCell>
        <mxCell id="xm51TeOPicrfB7E0WJey-0" value="输入变量" style="rounded=0;whiteSpace=wrap;html=1;" parent="Sm6wDZHAmXWlNj7RumEk-1" vertex="1">
          <mxGeometry x="50" y="80" width="280" height="60" as="geometry"/>
        </mxCell>
        <mxCell id="6C5OWczg_sf_DhOtf-9l-3" value="执行操作1" style="rounded=0;whiteSpace=wrap;html=1;" parent="Sm6wDZHAmXWlNj7RumEk-1" vertex="1">
          <mxGeometry x="50" y="270" width="80" height="60" as="geometry"/>
        </mxCell>
        <mxCell id="6C5OWczg_sf_DhOtf-9l-5" value="执行操作2" style="rounded=0;whiteSpace=wrap;html=1;" parent="Sm6wDZHAmXWlNj7RumEk-1" vertex="1">
          <mxGeometry x="150" y="270" width="80" height="60" as="geometry"/>
        </mxCell>
        <mxCell id="6C5OWczg_sf_DhOtf-9l-7" value="执行操作N" style="rounded=0;whiteSpace=wrap;html=1;" parent="Sm6wDZHAmXWlNj7RumEk-1" vertex="1">
          <mxGeometry x="250" y="270" width="80" height="60" as="geometry"/>
        </mxCell>
        <mxCell id="6C5OWczg_sf_DhOtf-9l-19" value="" style="edgeStyle=orthogonalEdgeStyle;rounded=0;orthogonalLoop=1;jettySize=auto;html=1;" parent="Sm6wDZHAmXWlNj7RumEk-1" source="6C5OWczg_sf_DhOtf-9l-14" target="6C5OWczg_sf_DhOtf-9l-3" edge="1">
          <mxGeometry relative="1" as="geometry"/>
        </mxCell>
        <mxCell id="6C5OWczg_sf_DhOtf-9l-14" value="判断规则1" style="rhombus;whiteSpace=wrap;html=1;" parent="Sm6wDZHAmXWlNj7RumEk-1" vertex="1">
          <mxGeometry x="50" y="180" width="80" height="60" as="geometry"/>
        </mxCell>
        <mxCell id="6C5OWczg_sf_DhOtf-9l-20" value="" style="edgeStyle=orthogonalEdgeStyle;rounded=0;orthogonalLoop=1;jettySize=auto;html=1;" parent="Sm6wDZHAmXWlNj7RumEk-1" source="6C5OWczg_sf_DhOtf-9l-17" target="6C5OWczg_sf_DhOtf-9l-5" edge="1">
          <mxGeometry relative="1" as="geometry"/>
        </mxCell>
        <mxCell id="6C5OWczg_sf_DhOtf-9l-17" value="判断规则2" style="rhombus;whiteSpace=wrap;html=1;" parent="Sm6wDZHAmXWlNj7RumEk-1" vertex="1">
          <mxGeometry x="150" y="180" width="80" height="60" as="geometry"/>
        </mxCell>
        <mxCell id="6C5OWczg_sf_DhOtf-9l-21" value="" style="edgeStyle=orthogonalEdgeStyle;rounded=0;orthogonalLoop=1;jettySize=auto;html=1;" parent="Sm6wDZHAmXWlNj7RumEk-1" source="6C5OWczg_sf_DhOtf-9l-18" target="6C5OWczg_sf_DhOtf-9l-7" edge="1">
          <mxGeometry relative="1" as="geometry"/>
        </mxCell>
        <mxCell id="6C5OWczg_sf_DhOtf-9l-18" value="判断规则N" style="rhombus;whiteSpace=wrap;html=1;" parent="Sm6wDZHAmXWlNj7RumEk-1" vertex="1">
          <mxGeometry x="250" y="180" width="80" height="60" as="geometry"/>
        </mxCell>
      </root>
    </mxGraphModel>
  </diagram>
  <diagram id="UOHdYBVEMjFw-mQfG0IO" name="Page-5">
    <mxGraphModel dx="1243" dy="651" grid="1" gridSize="10" guides="1" tooltips="1" connect="1" arrows="1" fold="1" page="1" pageScale="1" pageWidth="827" pageHeight="1169" math="0" shadow="0">
      <root>
        <mxCell id="FOldVBA6lesrEC8EcKWP-0"/>
        <mxCell id="FOldVBA6lesrEC8EcKWP-1" parent="FOldVBA6lesrEC8EcKWP-0"/>
        <mxCell id="FOldVBA6lesrEC8EcKWP-51" value="" style="edgeStyle=orthogonalEdgeStyle;rounded=0;orthogonalLoop=1;jettySize=auto;html=1;" edge="1" parent="FOldVBA6lesrEC8EcKWP-1" source="FOldVBA6lesrEC8EcKWP-8" target="FOldVBA6lesrEC8EcKWP-49">
          <mxGeometry relative="1" as="geometry"/>
        </mxCell>
        <mxCell id="FOldVBA6lesrEC8EcKWP-8" value="开始配置规则" style="strokeWidth=2;html=1;shape=mxgraph.flowchart.start_1;whiteSpace=wrap;" vertex="1" parent="FOldVBA6lesrEC8EcKWP-1">
          <mxGeometry x="269" y="20" width="100" height="60" as="geometry"/>
        </mxCell>
        <mxCell id="FOldVBA6lesrEC8EcKWP-21" style="edgeStyle=orthogonalEdgeStyle;rounded=0;orthogonalLoop=1;jettySize=auto;html=1;" edge="1" parent="FOldVBA6lesrEC8EcKWP-1" source="FOldVBA6lesrEC8EcKWP-11" target="FOldVBA6lesrEC8EcKWP-17">
          <mxGeometry relative="1" as="geometry">
            <Array as="points">
              <mxPoint x="319" y="470"/>
              <mxPoint x="229" y="470"/>
            </Array>
          </mxGeometry>
        </mxCell>
        <mxCell id="FOldVBA6lesrEC8EcKWP-22" style="edgeStyle=orthogonalEdgeStyle;rounded=0;orthogonalLoop=1;jettySize=auto;html=1;entryX=0.5;entryY=0;entryDx=0;entryDy=0;" edge="1" parent="FOldVBA6lesrEC8EcKWP-1" source="FOldVBA6lesrEC8EcKWP-11" target="FOldVBA6lesrEC8EcKWP-15">
          <mxGeometry relative="1" as="geometry">
            <Array as="points">
              <mxPoint x="319" y="470"/>
              <mxPoint x="469" y="470"/>
            </Array>
          </mxGeometry>
        </mxCell>
        <mxCell id="FOldVBA6lesrEC8EcKWP-11" value="拆解规则" style="rounded=1;whiteSpace=wrap;html=1;absoluteArcSize=1;arcSize=14;strokeWidth=2;" vertex="1" parent="FOldVBA6lesrEC8EcKWP-1">
          <mxGeometry x="269" y="390" width="100" height="60" as="geometry"/>
        </mxCell>
        <mxCell id="FOldVBA6lesrEC8EcKWP-14" value="基础指标" style="shape=parallelogram;html=1;strokeWidth=2;perimeter=parallelogramPerimeter;whiteSpace=wrap;rounded=1;arcSize=12;size=0.23;" vertex="1" parent="FOldVBA6lesrEC8EcKWP-1">
          <mxGeometry x="59" y="600" width="120" height="60" as="geometry"/>
        </mxCell>
        <mxCell id="FOldVBA6lesrEC8EcKWP-34" style="edgeStyle=orthogonalEdgeStyle;rounded=0;orthogonalLoop=1;jettySize=auto;html=1;entryX=0.5;entryY=0;entryDx=0;entryDy=0;entryPerimeter=0;" edge="1" parent="FOldVBA6lesrEC8EcKWP-1" source="FOldVBA6lesrEC8EcKWP-15" target="FOldVBA6lesrEC8EcKWP-33">
          <mxGeometry relative="1" as="geometry"/>
        </mxCell>
        <mxCell id="FOldVBA6lesrEC8EcKWP-15" value="决策规则" style="shape=parallelogram;html=1;strokeWidth=2;perimeter=parallelogramPerimeter;whiteSpace=wrap;rounded=1;arcSize=12;size=0.23;" vertex="1" parent="FOldVBA6lesrEC8EcKWP-1">
          <mxGeometry x="409" y="500" width="120" height="60" as="geometry"/>
        </mxCell>
        <mxCell id="FOldVBA6lesrEC8EcKWP-19" style="edgeStyle=orthogonalEdgeStyle;rounded=0;orthogonalLoop=1;jettySize=auto;html=1;" edge="1" parent="FOldVBA6lesrEC8EcKWP-1" source="FOldVBA6lesrEC8EcKWP-17" target="FOldVBA6lesrEC8EcKWP-14">
          <mxGeometry relative="1" as="geometry"/>
        </mxCell>
        <mxCell id="FOldVBA6lesrEC8EcKWP-20" style="edgeStyle=orthogonalEdgeStyle;rounded=0;orthogonalLoop=1;jettySize=auto;html=1;" edge="1" parent="FOldVBA6lesrEC8EcKWP-1" source="FOldVBA6lesrEC8EcKWP-17" target="FOldVBA6lesrEC8EcKWP-18">
          <mxGeometry relative="1" as="geometry"/>
        </mxCell>
        <mxCell id="FOldVBA6lesrEC8EcKWP-17" value="变量（指标）" style="shape=parallelogram;html=1;strokeWidth=2;perimeter=parallelogramPerimeter;whiteSpace=wrap;rounded=1;arcSize=12;size=0.23;" vertex="1" parent="FOldVBA6lesrEC8EcKWP-1">
          <mxGeometry x="169" y="500" width="120" height="60" as="geometry"/>
        </mxCell>
        <mxCell id="FOldVBA6lesrEC8EcKWP-24" value="" style="edgeStyle=orthogonalEdgeStyle;rounded=0;orthogonalLoop=1;jettySize=auto;html=1;" edge="1" parent="FOldVBA6lesrEC8EcKWP-1" source="FOldVBA6lesrEC8EcKWP-35" target="FOldVBA6lesrEC8EcKWP-23">
          <mxGeometry relative="1" as="geometry"/>
        </mxCell>
        <mxCell id="FOldVBA6lesrEC8EcKWP-18" value="组合指标&lt;br&gt;（二次计算）" style="shape=parallelogram;html=1;strokeWidth=2;perimeter=parallelogramPerimeter;whiteSpace=wrap;rounded=1;arcSize=12;size=0.23;" vertex="1" parent="FOldVBA6lesrEC8EcKWP-1">
          <mxGeometry x="229" y="600" width="120" height="60" as="geometry"/>
        </mxCell>
        <mxCell id="FOldVBA6lesrEC8EcKWP-40" value="" style="edgeStyle=orthogonalEdgeStyle;rounded=0;orthogonalLoop=1;jettySize=auto;html=1;" edge="1" parent="FOldVBA6lesrEC8EcKWP-1" source="FOldVBA6lesrEC8EcKWP-23" target="FOldVBA6lesrEC8EcKWP-30">
          <mxGeometry relative="1" as="geometry"/>
        </mxCell>
        <mxCell id="FOldVBA6lesrEC8EcKWP-23" value="指标规则" style="shape=parallelogram;html=1;strokeWidth=2;perimeter=parallelogramPerimeter;whiteSpace=wrap;rounded=1;arcSize=12;size=0.23;" vertex="1" parent="FOldVBA6lesrEC8EcKWP-1">
          <mxGeometry x="229" y="790" width="120" height="60" as="geometry"/>
        </mxCell>
        <mxCell id="FOldVBA6lesrEC8EcKWP-63" value="" style="edgeStyle=orthogonalEdgeStyle;rounded=0;orthogonalLoop=1;jettySize=auto;html=1;" edge="1" parent="FOldVBA6lesrEC8EcKWP-1" source="FOldVBA6lesrEC8EcKWP-30" target="FOldVBA6lesrEC8EcKWP-61">
          <mxGeometry relative="1" as="geometry"/>
        </mxCell>
        <mxCell id="FOldVBA6lesrEC8EcKWP-30" value="指标规则&lt;br&gt;配置" style="strokeWidth=2;html=1;shape=mxgraph.flowchart.direct_data;whiteSpace=wrap;" vertex="1" parent="FOldVBA6lesrEC8EcKWP-1">
          <mxGeometry x="239" y="890" width="100" height="60" as="geometry"/>
        </mxCell>
        <mxCell id="FOldVBA6lesrEC8EcKWP-64" value="" style="edgeStyle=orthogonalEdgeStyle;rounded=0;orthogonalLoop=1;jettySize=auto;html=1;" edge="1" parent="FOldVBA6lesrEC8EcKWP-1" source="FOldVBA6lesrEC8EcKWP-33" target="FOldVBA6lesrEC8EcKWP-62">
          <mxGeometry relative="1" as="geometry"/>
        </mxCell>
        <mxCell id="FOldVBA6lesrEC8EcKWP-33" value="决策规则&lt;br&gt;配置" style="strokeWidth=2;html=1;shape=mxgraph.flowchart.direct_data;whiteSpace=wrap;" vertex="1" parent="FOldVBA6lesrEC8EcKWP-1">
          <mxGeometry x="419" y="890" width="100" height="60" as="geometry"/>
        </mxCell>
        <mxCell id="FOldVBA6lesrEC8EcKWP-39" style="edgeStyle=orthogonalEdgeStyle;rounded=0;orthogonalLoop=1;jettySize=auto;html=1;entryX=0.5;entryY=0;entryDx=0;entryDy=0;" edge="1" parent="FOldVBA6lesrEC8EcKWP-1" source="FOldVBA6lesrEC8EcKWP-35" target="FOldVBA6lesrEC8EcKWP-38">
          <mxGeometry relative="1" as="geometry">
            <Array as="points">
              <mxPoint x="289" y="770"/>
              <mxPoint x="169" y="770"/>
            </Array>
          </mxGeometry>
        </mxCell>
        <mxCell id="FOldVBA6lesrEC8EcKWP-35" value="拆解规则" style="rounded=1;whiteSpace=wrap;html=1;absoluteArcSize=1;arcSize=14;strokeWidth=2;" vertex="1" parent="FOldVBA6lesrEC8EcKWP-1">
          <mxGeometry x="239" y="690" width="100" height="60" as="geometry"/>
        </mxCell>
        <mxCell id="FOldVBA6lesrEC8EcKWP-36" value="" style="edgeStyle=orthogonalEdgeStyle;rounded=0;orthogonalLoop=1;jettySize=auto;html=1;" edge="1" parent="FOldVBA6lesrEC8EcKWP-1" source="FOldVBA6lesrEC8EcKWP-18" target="FOldVBA6lesrEC8EcKWP-35">
          <mxGeometry relative="1" as="geometry">
            <mxPoint x="159" y="670" as="sourcePoint"/>
            <mxPoint x="159" y="790" as="targetPoint"/>
          </mxGeometry>
        </mxCell>
        <mxCell id="FOldVBA6lesrEC8EcKWP-37" value="基础指标&lt;br&gt;配置" style="strokeWidth=2;html=1;shape=mxgraph.flowchart.direct_data;whiteSpace=wrap;" vertex="1" parent="FOldVBA6lesrEC8EcKWP-1">
          <mxGeometry x="89" y="110" width="100" height="60" as="geometry"/>
        </mxCell>
        <mxCell id="FOldVBA6lesrEC8EcKWP-38" value="基础指标" style="shape=parallelogram;html=1;strokeWidth=2;perimeter=parallelogramPerimeter;whiteSpace=wrap;rounded=1;arcSize=12;size=0.23;" vertex="1" parent="FOldVBA6lesrEC8EcKWP-1">
          <mxGeometry x="109" y="790" width="120" height="60" as="geometry"/>
        </mxCell>
        <mxCell id="FOldVBA6lesrEC8EcKWP-48" value="" style="edgeStyle=orthogonalEdgeStyle;rounded=0;orthogonalLoop=1;jettySize=auto;html=1;" edge="1" parent="FOldVBA6lesrEC8EcKWP-1" source="FOldVBA6lesrEC8EcKWP-45" target="FOldVBA6lesrEC8EcKWP-11">
          <mxGeometry relative="1" as="geometry"/>
        </mxCell>
        <mxCell id="FOldVBA6lesrEC8EcKWP-45" value="达标规则&lt;br&gt;配置" style="strokeWidth=2;html=1;shape=mxgraph.flowchart.direct_data;whiteSpace=wrap;" vertex="1" parent="FOldVBA6lesrEC8EcKWP-1">
          <mxGeometry x="269" y="290" width="100" height="60" as="geometry"/>
        </mxCell>
        <mxCell id="FOldVBA6lesrEC8EcKWP-50" value="" style="edgeStyle=orthogonalEdgeStyle;rounded=0;orthogonalLoop=1;jettySize=auto;html=1;entryX=0;entryY=0.5;entryDx=0;entryDy=0;exitX=1;exitY=0.5;exitDx=0;exitDy=0;exitPerimeter=0;" edge="1" parent="FOldVBA6lesrEC8EcKWP-1" source="FOldVBA6lesrEC8EcKWP-37" target="FOldVBA6lesrEC8EcKWP-49">
          <mxGeometry relative="1" as="geometry">
            <mxPoint x="169" y="250" as="sourcePoint"/>
            <Array as="points">
              <mxPoint x="229" y="140"/>
              <mxPoint x="229" y="140"/>
            </Array>
          </mxGeometry>
        </mxCell>
        <mxCell id="FOldVBA6lesrEC8EcKWP-56" value="" style="edgeStyle=orthogonalEdgeStyle;rounded=0;orthogonalLoop=1;jettySize=auto;html=1;" edge="1" parent="FOldVBA6lesrEC8EcKWP-1">
          <mxGeometry relative="1" as="geometry">
            <mxPoint x="318" y="170" as="sourcePoint"/>
            <mxPoint x="318" y="200" as="targetPoint"/>
          </mxGeometry>
        </mxCell>
        <mxCell id="FOldVBA6lesrEC8EcKWP-49" value="选择基础指标&lt;br&gt;配置达标规则" style="rounded=1;whiteSpace=wrap;html=1;absoluteArcSize=1;arcSize=14;strokeWidth=2;" vertex="1" parent="FOldVBA6lesrEC8EcKWP-1">
          <mxGeometry x="269" y="110" width="100" height="60" as="geometry"/>
        </mxCell>
        <mxCell id="FOldVBA6lesrEC8EcKWP-55" value="" style="edgeStyle=orthogonalEdgeStyle;rounded=0;orthogonalLoop=1;jettySize=auto;html=1;" edge="1" parent="FOldVBA6lesrEC8EcKWP-1" source="FOldVBA6lesrEC8EcKWP-52" target="FOldVBA6lesrEC8EcKWP-45">
          <mxGeometry relative="1" as="geometry"/>
        </mxCell>
        <mxCell id="FOldVBA6lesrEC8EcKWP-52" value="解析、存储&lt;br&gt;达标规则" style="rounded=1;whiteSpace=wrap;html=1;absoluteArcSize=1;arcSize=14;strokeWidth=2;" vertex="1" parent="FOldVBA6lesrEC8EcKWP-1">
          <mxGeometry x="269" y="200" width="100" height="60" as="geometry"/>
        </mxCell>
        <mxCell id="FOldVBA6lesrEC8EcKWP-58" value="基础指标&lt;br&gt;配置" style="strokeWidth=2;html=1;shape=mxgraph.flowchart.direct_data;whiteSpace=wrap;" vertex="1" parent="FOldVBA6lesrEC8EcKWP-1">
          <mxGeometry x="69" y="890" width="100" height="60" as="geometry"/>
        </mxCell>
        <mxCell id="FOldVBA6lesrEC8EcKWP-61" value="指标计算服务" style="rounded=1;whiteSpace=wrap;html=1;absoluteArcSize=1;arcSize=14;strokeWidth=2;" vertex="1" parent="FOldVBA6lesrEC8EcKWP-1">
          <mxGeometry x="239" y="1000" width="100" height="60" as="geometry"/>
        </mxCell>
        <mxCell id="FOldVBA6lesrEC8EcKWP-62" value="决策计算服务" style="rounded=1;whiteSpace=wrap;html=1;absoluteArcSize=1;arcSize=14;strokeWidth=2;" vertex="1" parent="FOldVBA6lesrEC8EcKWP-1">
          <mxGeometry x="419" y="1000" width="100" height="60" as="geometry"/>
        </mxCell>
        <mxCell id="D_MypCPdxalYBRfUR5zF-0" value="" style="endArrow=none;dashed=1;html=1;" edge="1" parent="FOldVBA6lesrEC8EcKWP-1">
          <mxGeometry width="50" height="50" relative="1" as="geometry">
            <mxPoint x="59" y="180" as="sourcePoint"/>
            <mxPoint x="535" y="180" as="targetPoint"/>
          </mxGeometry>
        </mxCell>
        <mxCell id="D_MypCPdxalYBRfUR5zF-1" value="精准营销前端" style="text;html=1;resizable=0;points=[];autosize=1;align=left;verticalAlign=top;spacingTop=-4;" vertex="1" parent="FOldVBA6lesrEC8EcKWP-1">
          <mxGeometry x="540" y="170" width="90" height="20" as="geometry"/>
        </mxCell>
        <mxCell id="D_MypCPdxalYBRfUR5zF-2" value="" style="endArrow=none;dashed=1;html=1;" edge="1" parent="FOldVBA6lesrEC8EcKWP-1">
          <mxGeometry width="50" height="50" relative="1" as="geometry">
            <mxPoint x="53" y="270" as="sourcePoint"/>
            <mxPoint x="529" y="270" as="targetPoint"/>
          </mxGeometry>
        </mxCell>
        <mxCell id="D_MypCPdxalYBRfUR5zF-3" value="精准营销后端" style="text;html=1;resizable=0;points=[];autosize=1;align=left;verticalAlign=top;spacingTop=-4;" vertex="1" parent="FOldVBA6lesrEC8EcKWP-1">
          <mxGeometry x="540" y="260" width="90" height="20" as="geometry"/>
        </mxCell>
        <mxCell id="D_MypCPdxalYBRfUR5zF-4" value="" style="endArrow=none;dashed=1;html=1;" edge="1" parent="FOldVBA6lesrEC8EcKWP-1">
          <mxGeometry width="50" height="50" relative="1" as="geometry">
            <mxPoint x="53" y="869.5" as="sourcePoint"/>
            <mxPoint x="529" y="869.5" as="targetPoint"/>
          </mxGeometry>
        </mxCell>
        <mxCell id="D_MypCPdxalYBRfUR5zF-6" value="规则引擎前置（ccic-api）" style="text;html=1;resizable=0;points=[];autosize=1;align=left;verticalAlign=top;spacingTop=-4;" vertex="1" parent="FOldVBA6lesrEC8EcKWP-1">
          <mxGeometry x="540" y="860" width="150" height="20" as="geometry"/>
        </mxCell>
        <mxCell id="D_MypCPdxalYBRfUR5zF-8" value="" style="endArrow=none;dashed=1;html=1;" edge="1" parent="FOldVBA6lesrEC8EcKWP-1">
          <mxGeometry width="50" height="50" relative="1" as="geometry">
            <mxPoint x="53" y="979.5" as="sourcePoint"/>
            <mxPoint x="529" y="979.5" as="targetPoint"/>
          </mxGeometry>
        </mxCell>
        <mxCell id="D_MypCPdxalYBRfUR5zF-9" value="规则引擎（ccie-realtime-ws）" style="text;html=1;resizable=0;points=[];autosize=1;align=left;verticalAlign=top;spacingTop=-4;" vertex="1" parent="FOldVBA6lesrEC8EcKWP-1">
          <mxGeometry x="540" y="970" width="170" height="20" as="geometry"/>
        </mxCell>
      </root>
    </mxGraphModel>
  </diagram>
  <diagram id="SpCXun95c8b5roYHcaoR" name="Page-6">
    <mxGraphModel dx="932" dy="488" grid="1" gridSize="10" guides="1" tooltips="1" connect="1" arrows="1" fold="1" page="1" pageScale="1" pageWidth="827" pageHeight="1169" math="0" shadow="0">
      <root>
        <mxCell id="vEiz-pOEBtRRmHUMgK-7-0"/>
        <mxCell id="vEiz-pOEBtRRmHUMgK-7-1" parent="vEiz-pOEBtRRmHUMgK-7-0"/>
        <mxCell id="vEiz-pOEBtRRmHUMgK-7-2" value="" style="edgeStyle=orthogonalEdgeStyle;rounded=0;orthogonalLoop=1;jettySize=auto;html=1;" edge="1" parent="vEiz-pOEBtRRmHUMgK-7-1" source="vEiz-pOEBtRRmHUMgK-7-3" target="vEiz-pOEBtRRmHUMgK-7-5">
          <mxGeometry relative="1" as="geometry"/>
        </mxCell>
        <mxCell id="vEiz-pOEBtRRmHUMgK-7-3" value="实时运行" style="strokeWidth=2;html=1;shape=mxgraph.flowchart.start_1;whiteSpace=wrap;" vertex="1" parent="vEiz-pOEBtRRmHUMgK-7-1">
          <mxGeometry x="430" y="30" width="100" height="60" as="geometry"/>
        </mxCell>
        <mxCell id="vEiz-pOEBtRRmHUMgK-7-4" value="" style="edgeStyle=orthogonalEdgeStyle;rounded=0;orthogonalLoop=1;jettySize=auto;html=1;" edge="1" parent="vEiz-pOEBtRRmHUMgK-7-1" source="vEiz-pOEBtRRmHUMgK-7-5">
          <mxGeometry relative="1" as="geometry">
            <mxPoint x="480" y="220" as="targetPoint"/>
          </mxGeometry>
        </mxCell>
        <mxCell id="vEiz-pOEBtRRmHUMgK-7-5" value="事件监听" style="rounded=1;whiteSpace=wrap;html=1;absoluteArcSize=1;arcSize=14;strokeWidth=2;" vertex="1" parent="vEiz-pOEBtRRmHUMgK-7-1">
          <mxGeometry x="430" y="120" width="100" height="60" as="geometry"/>
        </mxCell>
        <mxCell id="vEiz-pOEBtRRmHUMgK-7-6" value="" style="edgeStyle=orthogonalEdgeStyle;rounded=0;orthogonalLoop=1;jettySize=auto;html=1;" edge="1" parent="vEiz-pOEBtRRmHUMgK-7-1" source="vEiz-pOEBtRRmHUMgK-7-7" target="vEiz-pOEBtRRmHUMgK-7-15">
          <mxGeometry relative="1" as="geometry"/>
        </mxCell>
        <mxCell id="vEiz-pOEBtRRmHUMgK-7-7" value="基础指标加工" style="rounded=1;whiteSpace=wrap;html=1;absoluteArcSize=1;arcSize=14;strokeWidth=2;" vertex="1" parent="vEiz-pOEBtRRmHUMgK-7-1">
          <mxGeometry x="320" y="340" width="100" height="60" as="geometry"/>
        </mxCell>
        <mxCell id="vEiz-pOEBtRRmHUMgK-7-8" value="" style="edgeStyle=orthogonalEdgeStyle;rounded=0;orthogonalLoop=1;jettySize=auto;html=1;" edge="1" parent="vEiz-pOEBtRRmHUMgK-7-1" source="vEiz-pOEBtRRmHUMgK-7-9" target="vEiz-pOEBtRRmHUMgK-7-5">
          <mxGeometry relative="1" as="geometry"/>
        </mxCell>
        <mxCell id="vEiz-pOEBtRRmHUMgK-7-9" value="数据源配置" style="strokeWidth=2;html=1;shape=mxgraph.flowchart.direct_data;whiteSpace=wrap;" vertex="1" parent="vEiz-pOEBtRRmHUMgK-7-1">
          <mxGeometry x="260" y="120" width="100" height="60" as="geometry"/>
        </mxCell>
        <mxCell id="vEiz-pOEBtRRmHUMgK-7-10" style="edgeStyle=orthogonalEdgeStyle;rounded=0;orthogonalLoop=1;jettySize=auto;html=1;entryX=0.5;entryY=0;entryDx=0;entryDy=0;" edge="1" parent="vEiz-pOEBtRRmHUMgK-7-1" target="vEiz-pOEBtRRmHUMgK-7-7">
          <mxGeometry relative="1" as="geometry">
            <mxPoint x="480" y="280" as="sourcePoint"/>
            <Array as="points">
              <mxPoint x="480" y="310"/>
              <mxPoint x="370" y="310"/>
            </Array>
          </mxGeometry>
        </mxCell>
        <mxCell id="vEiz-pOEBtRRmHUMgK-7-11" value="领域A" style="text;html=1;resizable=0;points=[];align=center;verticalAlign=middle;labelBackgroundColor=#ffffff;" vertex="1" connectable="0" parent="vEiz-pOEBtRRmHUMgK-7-10">
          <mxGeometry x="0.2353" y="1" relative="1" as="geometry">
            <mxPoint x="8" y="-1" as="offset"/>
          </mxGeometry>
        </mxCell>
        <mxCell id="vEiz-pOEBtRRmHUMgK-7-12" value="" style="edgeStyle=orthogonalEdgeStyle;rounded=0;orthogonalLoop=1;jettySize=auto;html=1;" edge="1" parent="vEiz-pOEBtRRmHUMgK-7-1" source="vEiz-pOEBtRRmHUMgK-7-13">
          <mxGeometry relative="1" as="geometry">
            <mxPoint x="430" y="250" as="targetPoint"/>
          </mxGeometry>
        </mxCell>
        <mxCell id="vEiz-pOEBtRRmHUMgK-7-13" value="路由配置" style="strokeWidth=2;html=1;shape=mxgraph.flowchart.direct_data;whiteSpace=wrap;" vertex="1" parent="vEiz-pOEBtRRmHUMgK-7-1">
          <mxGeometry x="260" y="220" width="100" height="60" as="geometry"/>
        </mxCell>
        <mxCell id="vEiz-pOEBtRRmHUMgK-7-14" value="" style="edgeStyle=orthogonalEdgeStyle;rounded=0;orthogonalLoop=1;jettySize=auto;html=1;" edge="1" parent="vEiz-pOEBtRRmHUMgK-7-1" source="vEiz-pOEBtRRmHUMgK-7-15" target="vEiz-pOEBtRRmHUMgK-7-20">
          <mxGeometry relative="1" as="geometry"/>
        </mxCell>
        <mxCell id="dU9a7zjHFkm0DqAKNDQi-4" style="edgeStyle=orthogonalEdgeStyle;rounded=0;orthogonalLoop=1;jettySize=auto;html=1;entryX=0;entryY=0.5;entryDx=0;entryDy=0;" edge="1" parent="vEiz-pOEBtRRmHUMgK-7-1" source="vEiz-pOEBtRRmHUMgK-7-15" target="dU9a7zjHFkm0DqAKNDQi-0">
          <mxGeometry relative="1" as="geometry"/>
        </mxCell>
        <mxCell id="vEiz-pOEBtRRmHUMgK-7-15" value="组合指标加工" style="rounded=1;whiteSpace=wrap;html=1;absoluteArcSize=1;arcSize=14;strokeWidth=2;" vertex="1" parent="vEiz-pOEBtRRmHUMgK-7-1">
          <mxGeometry x="320" y="440" width="100" height="60" as="geometry"/>
        </mxCell>
        <mxCell id="vEiz-pOEBtRRmHUMgK-7-16" value="基础指标加工" style="rounded=1;whiteSpace=wrap;html=1;absoluteArcSize=1;arcSize=14;strokeWidth=2;" vertex="1" parent="vEiz-pOEBtRRmHUMgK-7-1">
          <mxGeometry x="530" y="340" width="100" height="60" as="geometry"/>
        </mxCell>
        <mxCell id="vEiz-pOEBtRRmHUMgK-7-17" style="edgeStyle=orthogonalEdgeStyle;rounded=0;orthogonalLoop=1;jettySize=auto;html=1;" edge="1" parent="vEiz-pOEBtRRmHUMgK-7-1" source="vEiz-pOEBtRRmHUMgK-7-19" target="vEiz-pOEBtRRmHUMgK-7-16">
          <mxGeometry relative="1" as="geometry"/>
        </mxCell>
        <mxCell id="vEiz-pOEBtRRmHUMgK-7-18" value="领域B" style="text;html=1;resizable=0;points=[];align=center;verticalAlign=middle;labelBackgroundColor=#ffffff;" vertex="1" connectable="0" parent="vEiz-pOEBtRRmHUMgK-7-17">
          <mxGeometry x="-0.0875" y="-1" relative="1" as="geometry">
            <mxPoint as="offset"/>
          </mxGeometry>
        </mxCell>
        <mxCell id="vEiz-pOEBtRRmHUMgK-7-19" value="事件路由" style="strokeWidth=2;html=1;shape=mxgraph.flowchart.decision;whiteSpace=wrap;" vertex="1" parent="vEiz-pOEBtRRmHUMgK-7-1">
          <mxGeometry x="430" y="220" width="100" height="60" as="geometry"/>
        </mxCell>
        <mxCell id="dU9a7zjHFkm0DqAKNDQi-3" style="edgeStyle=orthogonalEdgeStyle;rounded=0;orthogonalLoop=1;jettySize=auto;html=1;entryX=0.5;entryY=0;entryDx=0;entryDy=0;" edge="1" parent="vEiz-pOEBtRRmHUMgK-7-1" source="vEiz-pOEBtRRmHUMgK-7-20" target="dU9a7zjHFkm0DqAKNDQi-2">
          <mxGeometry relative="1" as="geometry">
            <Array as="points">
              <mxPoint x="370" y="660"/>
              <mxPoint x="480" y="660"/>
            </Array>
          </mxGeometry>
        </mxCell>
        <mxCell id="dU9a7zjHFkm0DqAKNDQi-5" style="edgeStyle=orthogonalEdgeStyle;rounded=0;orthogonalLoop=1;jettySize=auto;html=1;entryX=0;entryY=0.5;entryDx=0;entryDy=0;" edge="1" parent="vEiz-pOEBtRRmHUMgK-7-1" source="vEiz-pOEBtRRmHUMgK-7-20" target="dU9a7zjHFkm0DqAKNDQi-1">
          <mxGeometry relative="1" as="geometry"/>
        </mxCell>
        <mxCell id="vEiz-pOEBtRRmHUMgK-7-20" value="决策判断" style="rounded=1;whiteSpace=wrap;html=1;absoluteArcSize=1;arcSize=14;strokeWidth=2;" vertex="1" parent="vEiz-pOEBtRRmHUMgK-7-1">
          <mxGeometry x="320" y="550" width="100" height="60" as="geometry"/>
        </mxCell>
        <mxCell id="vmW6_AP3-IuMpM4FZMYn-0" value="" style="edgeStyle=orthogonalEdgeStyle;rounded=0;orthogonalLoop=1;jettySize=auto;html=1;" edge="1" parent="vEiz-pOEBtRRmHUMgK-7-1" source="4YMMGBkT0UWDigaJBydE-0" target="vEiz-pOEBtRRmHUMgK-7-15">
          <mxGeometry relative="1" as="geometry"/>
        </mxCell>
        <mxCell id="4YMMGBkT0UWDigaJBydE-0" value="指标规则&lt;br&gt;配置" style="strokeWidth=2;html=1;shape=mxgraph.flowchart.direct_data;whiteSpace=wrap;" vertex="1" parent="vEiz-pOEBtRRmHUMgK-7-1">
          <mxGeometry x="140" y="440" width="100" height="60" as="geometry"/>
        </mxCell>
        <mxCell id="vmW6_AP3-IuMpM4FZMYn-1" value="" style="edgeStyle=orthogonalEdgeStyle;rounded=0;orthogonalLoop=1;jettySize=auto;html=1;" edge="1" parent="vEiz-pOEBtRRmHUMgK-7-1" source="4YMMGBkT0UWDigaJBydE-1" target="vEiz-pOEBtRRmHUMgK-7-20">
          <mxGeometry relative="1" as="geometry"/>
        </mxCell>
        <mxCell id="4YMMGBkT0UWDigaJBydE-1" value="决策规则&lt;br&gt;配置" style="strokeWidth=2;html=1;shape=mxgraph.flowchart.direct_data;whiteSpace=wrap;" vertex="1" parent="vEiz-pOEBtRRmHUMgK-7-1">
          <mxGeometry x="140" y="550" width="100" height="60" as="geometry"/>
        </mxCell>
        <mxCell id="dU9a7zjHFkm0DqAKNDQi-0" value="指标计算服务" style="rounded=1;whiteSpace=wrap;html=1;absoluteArcSize=1;arcSize=14;strokeWidth=2;" vertex="1" parent="vEiz-pOEBtRRmHUMgK-7-1">
          <mxGeometry x="680" y="440" width="100" height="60" as="geometry"/>
        </mxCell>
        <mxCell id="dU9a7zjHFkm0DqAKNDQi-1" value="决策计算服务" style="rounded=1;whiteSpace=wrap;html=1;absoluteArcSize=1;arcSize=14;strokeWidth=2;" vertex="1" parent="vEiz-pOEBtRRmHUMgK-7-1">
          <mxGeometry x="680" y="550" width="100" height="60" as="geometry"/>
        </mxCell>
        <mxCell id="dU9a7zjHFkm0DqAKNDQi-2" value="事件输出" style="rounded=1;whiteSpace=wrap;html=1;absoluteArcSize=1;arcSize=14;strokeWidth=2;" vertex="1" parent="vEiz-pOEBtRRmHUMgK-7-1">
          <mxGeometry x="430" y="710" width="100" height="60" as="geometry"/>
        </mxCell>
        <mxCell id="2blAbT0xzpkef9mreaz2-0" value="" style="endArrow=none;dashed=1;html=1;" edge="1" parent="vEiz-pOEBtRRmHUMgK-7-1">
          <mxGeometry width="50" height="50" relative="1" as="geometry">
            <mxPoint x="650" y="780" as="sourcePoint"/>
            <mxPoint x="650" y="60" as="targetPoint"/>
          </mxGeometry>
        </mxCell>
        <mxCell id="2blAbT0xzpkef9mreaz2-1" value="实时数据总线ccie-consumer" style="text;html=1;resizable=0;points=[];autosize=1;align=left;verticalAlign=top;spacingTop=-4;" vertex="1" parent="vEiz-pOEBtRRmHUMgK-7-1">
          <mxGeometry x="219" y="45" width="170" height="20" as="geometry"/>
        </mxCell>
        <mxCell id="2blAbT0xzpkef9mreaz2-2" value="规则引擎ccie-realtime-ws" style="text;html=1;resizable=0;points=[];autosize=1;align=left;verticalAlign=top;spacingTop=-4;" vertex="1" parent="vEiz-pOEBtRRmHUMgK-7-1">
          <mxGeometry x="670" y="50" width="150" height="20" as="geometry"/>
        </mxCell>
      </root>
    </mxGraphModel>
  </diagram>
  <diagram id="UXsary5Pv43u1vGJa2Ez" name="Page-7">
    <mxGraphModel dx="932" dy="488" grid="1" gridSize="10" guides="1" tooltips="1" connect="1" arrows="1" fold="1" page="1" pageScale="1" pageWidth="827" pageHeight="1169" math="0" shadow="0">
      <root>
        <mxCell id="x96REkmGthXuy-XDYIiv-0"/>
        <mxCell id="x96REkmGthXuy-XDYIiv-1" parent="x96REkmGthXuy-XDYIiv-0"/>
        <mxCell id="gyi6hZt6RAHIKI2pP77f-3" value="" style="edgeStyle=orthogonalEdgeStyle;rounded=0;orthogonalLoop=1;jettySize=auto;html=1;" edge="1" parent="x96REkmGthXuy-XDYIiv-1" source="x96REkmGthXuy-XDYIiv-2" target="gyi6hZt6RAHIKI2pP77f-0">
          <mxGeometry relative="1" as="geometry"/>
        </mxCell>
        <mxCell id="x96REkmGthXuy-XDYIiv-2" value="精准营销&lt;br&gt;事件处理" style="strokeWidth=2;html=1;shape=mxgraph.flowchart.start_1;whiteSpace=wrap;" vertex="1" parent="x96REkmGthXuy-XDYIiv-1">
          <mxGeometry x="280" y="10" width="100" height="60" as="geometry"/>
        </mxCell>
        <mxCell id="51Zcue07iTcbYNvGC7Jz-2" value="" style="edgeStyle=orthogonalEdgeStyle;rounded=0;orthogonalLoop=1;jettySize=auto;html=1;" edge="1" parent="x96REkmGthXuy-XDYIiv-1" source="dMLMBxqKPeQAMvbcMPgt-0" target="HaB4KVKH-x73SENNJ_zs-0">
          <mxGeometry relative="1" as="geometry"/>
        </mxCell>
        <mxCell id="dMLMBxqKPeQAMvbcMPgt-0" value="进件领域&lt;br&gt;基础指标加工" style="rounded=1;whiteSpace=wrap;html=1;absoluteArcSize=1;arcSize=14;strokeWidth=2;" vertex="1" parent="x96REkmGthXuy-XDYIiv-1">
          <mxGeometry x="120" y="190" width="100" height="60" as="geometry"/>
        </mxCell>
        <mxCell id="gyi6hZt6RAHIKI2pP77f-4" value="" style="edgeStyle=orthogonalEdgeStyle;rounded=0;orthogonalLoop=1;jettySize=auto;html=1;" edge="1" parent="x96REkmGthXuy-XDYIiv-1" source="gyi6hZt6RAHIKI2pP77f-0" target="gyi6hZt6RAHIKI2pP77f-1">
          <mxGeometry relative="1" as="geometry"/>
        </mxCell>
        <mxCell id="gyi6hZt6RAHIKI2pP77f-5" style="edgeStyle=orthogonalEdgeStyle;rounded=0;orthogonalLoop=1;jettySize=auto;html=1;entryX=0.5;entryY=0;entryDx=0;entryDy=0;" edge="1" parent="x96REkmGthXuy-XDYIiv-1" source="gyi6hZt6RAHIKI2pP77f-0" target="dMLMBxqKPeQAMvbcMPgt-0">
          <mxGeometry relative="1" as="geometry"/>
        </mxCell>
        <mxCell id="gyi6hZt6RAHIKI2pP77f-6" style="edgeStyle=orthogonalEdgeStyle;rounded=0;orthogonalLoop=1;jettySize=auto;html=1;" edge="1" parent="x96REkmGthXuy-XDYIiv-1" source="gyi6hZt6RAHIKI2pP77f-0" target="gyi6hZt6RAHIKI2pP77f-2">
          <mxGeometry relative="1" as="geometry"/>
        </mxCell>
        <mxCell id="gyi6hZt6RAHIKI2pP77f-0" value="事件路由" style="strokeWidth=2;html=1;shape=mxgraph.flowchart.decision;whiteSpace=wrap;" vertex="1" parent="x96REkmGthXuy-XDYIiv-1">
          <mxGeometry x="280" y="100" width="100" height="60" as="geometry"/>
        </mxCell>
        <mxCell id="51Zcue07iTcbYNvGC7Jz-3" value="" style="edgeStyle=orthogonalEdgeStyle;rounded=0;orthogonalLoop=1;jettySize=auto;html=1;" edge="1" parent="x96REkmGthXuy-XDYIiv-1" source="gyi6hZt6RAHIKI2pP77f-1" target="51Zcue07iTcbYNvGC7Jz-0">
          <mxGeometry relative="1" as="geometry"/>
        </mxCell>
        <mxCell id="gyi6hZt6RAHIKI2pP77f-1" value="交易领域&lt;br&gt;基础指标加工" style="rounded=1;whiteSpace=wrap;html=1;absoluteArcSize=1;arcSize=14;strokeWidth=2;" vertex="1" parent="x96REkmGthXuy-XDYIiv-1">
          <mxGeometry x="280" y="190" width="100" height="60" as="geometry"/>
        </mxCell>
        <mxCell id="51Zcue07iTcbYNvGC7Jz-5" value="" style="edgeStyle=orthogonalEdgeStyle;rounded=0;orthogonalLoop=1;jettySize=auto;html=1;" edge="1" parent="x96REkmGthXuy-XDYIiv-1" source="gyi6hZt6RAHIKI2pP77f-2" target="51Zcue07iTcbYNvGC7Jz-1">
          <mxGeometry relative="1" as="geometry"/>
        </mxCell>
        <mxCell id="gyi6hZt6RAHIKI2pP77f-2" value="绑卡领域&lt;br&gt;基础指标加工" style="rounded=1;whiteSpace=wrap;html=1;absoluteArcSize=1;arcSize=14;strokeWidth=2;" vertex="1" parent="x96REkmGthXuy-XDYIiv-1">
          <mxGeometry x="440" y="190" width="100" height="60" as="geometry"/>
        </mxCell>
        <mxCell id="51Zcue07iTcbYNvGC7Jz-8" style="edgeStyle=orthogonalEdgeStyle;rounded=0;orthogonalLoop=1;jettySize=auto;html=1;entryX=0.5;entryY=0;entryDx=0;entryDy=0;" edge="1" parent="x96REkmGthXuy-XDYIiv-1" source="HaB4KVKH-x73SENNJ_zs-0" target="51Zcue07iTcbYNvGC7Jz-6">
          <mxGeometry relative="1" as="geometry"/>
        </mxCell>
        <mxCell id="51Zcue07iTcbYNvGC7Jz-13" style="edgeStyle=orthogonalEdgeStyle;rounded=0;orthogonalLoop=1;jettySize=auto;html=1;entryX=0.5;entryY=0;entryDx=0;entryDy=0;" edge="1" parent="x96REkmGthXuy-XDYIiv-1" target="51Zcue07iTcbYNvGC7Jz-7">
          <mxGeometry relative="1" as="geometry">
            <mxPoint x="170" y="345" as="sourcePoint"/>
            <mxPoint x="420" y="435" as="targetPoint"/>
            <Array as="points">
              <mxPoint x="170" y="395"/>
              <mxPoint x="420" y="395"/>
            </Array>
          </mxGeometry>
        </mxCell>
        <mxCell id="HaB4KVKH-x73SENNJ_zs-0" value="进件领域&lt;br&gt;组合指标&lt;br&gt;规则计算" style="rounded=1;whiteSpace=wrap;html=1;absoluteArcSize=1;arcSize=14;strokeWidth=2;" vertex="1" parent="x96REkmGthXuy-XDYIiv-1">
          <mxGeometry x="120" y="290" width="100" height="60" as="geometry"/>
        </mxCell>
        <mxCell id="51Zcue07iTcbYNvGC7Jz-9" style="edgeStyle=orthogonalEdgeStyle;rounded=0;orthogonalLoop=1;jettySize=auto;html=1;entryX=0.5;entryY=0;entryDx=0;entryDy=0;" edge="1" parent="x96REkmGthXuy-XDYIiv-1" source="51Zcue07iTcbYNvGC7Jz-0" target="51Zcue07iTcbYNvGC7Jz-6">
          <mxGeometry relative="1" as="geometry"/>
        </mxCell>
        <mxCell id="51Zcue07iTcbYNvGC7Jz-14" style="edgeStyle=orthogonalEdgeStyle;rounded=0;orthogonalLoop=1;jettySize=auto;html=1;entryX=0.5;entryY=0;entryDx=0;entryDy=0;" edge="1" parent="x96REkmGthXuy-XDYIiv-1" source="51Zcue07iTcbYNvGC7Jz-0" target="51Zcue07iTcbYNvGC7Jz-7">
          <mxGeometry relative="1" as="geometry"/>
        </mxCell>
        <mxCell id="51Zcue07iTcbYNvGC7Jz-0" value="交易领域&lt;br&gt;组合指标&lt;br&gt;规则计算" style="rounded=1;whiteSpace=wrap;html=1;absoluteArcSize=1;arcSize=14;strokeWidth=2;" vertex="1" parent="x96REkmGthXuy-XDYIiv-1">
          <mxGeometry x="280" y="290" width="100" height="60" as="geometry"/>
        </mxCell>
        <mxCell id="51Zcue07iTcbYNvGC7Jz-10" style="edgeStyle=orthogonalEdgeStyle;rounded=0;orthogonalLoop=1;jettySize=auto;html=1;entryX=0.5;entryY=0;entryDx=0;entryDy=0;" edge="1" parent="x96REkmGthXuy-XDYIiv-1" target="51Zcue07iTcbYNvGC7Jz-6">
          <mxGeometry relative="1" as="geometry">
            <mxPoint x="490" y="345" as="sourcePoint"/>
            <mxPoint x="250" y="435" as="targetPoint"/>
            <Array as="points">
              <mxPoint x="490" y="395"/>
              <mxPoint x="250" y="395"/>
            </Array>
          </mxGeometry>
        </mxCell>
        <mxCell id="51Zcue07iTcbYNvGC7Jz-15" style="edgeStyle=orthogonalEdgeStyle;rounded=0;orthogonalLoop=1;jettySize=auto;html=1;entryX=0.5;entryY=0;entryDx=0;entryDy=0;" edge="1" parent="x96REkmGthXuy-XDYIiv-1" source="51Zcue07iTcbYNvGC7Jz-1" target="51Zcue07iTcbYNvGC7Jz-7">
          <mxGeometry relative="1" as="geometry"/>
        </mxCell>
        <mxCell id="51Zcue07iTcbYNvGC7Jz-1" value="绑卡领域&lt;br&gt;组合指标&lt;br&gt;规则计算" style="rounded=1;whiteSpace=wrap;html=1;absoluteArcSize=1;arcSize=14;strokeWidth=2;" vertex="1" parent="x96REkmGthXuy-XDYIiv-1">
          <mxGeometry x="440" y="290" width="100" height="60" as="geometry"/>
        </mxCell>
        <mxCell id="ihPPklCjgYsT0sFvJ_W7-1" style="edgeStyle=orthogonalEdgeStyle;rounded=0;orthogonalLoop=1;jettySize=auto;html=1;" edge="1" parent="x96REkmGthXuy-XDYIiv-1" source="51Zcue07iTcbYNvGC7Jz-6" target="51Zcue07iTcbYNvGC7Jz-16">
          <mxGeometry relative="1" as="geometry"/>
        </mxCell>
        <mxCell id="51Zcue07iTcbYNvGC7Jz-6" value="客户领域&lt;br&gt;达标规则判断" style="rounded=1;whiteSpace=wrap;html=1;absoluteArcSize=1;arcSize=14;strokeWidth=2;" vertex="1" parent="x96REkmGthXuy-XDYIiv-1">
          <mxGeometry x="200" y="440" width="100" height="60" as="geometry"/>
        </mxCell>
        <mxCell id="ihPPklCjgYsT0sFvJ_W7-2" style="edgeStyle=orthogonalEdgeStyle;rounded=0;orthogonalLoop=1;jettySize=auto;html=1;" edge="1" parent="x96REkmGthXuy-XDYIiv-1" source="51Zcue07iTcbYNvGC7Jz-7" target="51Zcue07iTcbYNvGC7Jz-16">
          <mxGeometry relative="1" as="geometry"/>
        </mxCell>
        <mxCell id="51Zcue07iTcbYNvGC7Jz-7" value="信用卡领域&lt;br&gt;达标规则判断" style="rounded=1;whiteSpace=wrap;html=1;absoluteArcSize=1;arcSize=14;strokeWidth=2;" vertex="1" parent="x96REkmGthXuy-XDYIiv-1">
          <mxGeometry x="370" y="440" width="100" height="60" as="geometry"/>
        </mxCell>
        <mxCell id="ihPPklCjgYsT0sFvJ_W7-3" value="" style="edgeStyle=orthogonalEdgeStyle;rounded=0;orthogonalLoop=1;jettySize=auto;html=1;" edge="1" parent="x96REkmGthXuy-XDYIiv-1" source="51Zcue07iTcbYNvGC7Jz-16" target="ihPPklCjgYsT0sFvJ_W7-0">
          <mxGeometry relative="1" as="geometry"/>
        </mxCell>
        <mxCell id="ihPPklCjgYsT0sFvJ_W7-6" value="" style="edgeStyle=orthogonalEdgeStyle;rounded=0;orthogonalLoop=1;jettySize=auto;html=1;" edge="1" parent="x96REkmGthXuy-XDYIiv-1" source="51Zcue07iTcbYNvGC7Jz-16" target="ihPPklCjgYsT0sFvJ_W7-5">
          <mxGeometry relative="1" as="geometry"/>
        </mxCell>
        <mxCell id="51Zcue07iTcbYNvGC7Jz-16" value="达标结果输出" style="rounded=1;whiteSpace=wrap;html=1;absoluteArcSize=1;arcSize=14;strokeWidth=2;" vertex="1" parent="x96REkmGthXuy-XDYIiv-1">
          <mxGeometry x="290" y="550" width="100" height="60" as="geometry"/>
        </mxCell>
        <mxCell id="ihPPklCjgYsT0sFvJ_W7-5" value="ES写入模块" style="rounded=1;whiteSpace=wrap;html=1;absoluteArcSize=1;arcSize=14;strokeWidth=2;" vertex="1" parent="x96REkmGthXuy-XDYIiv-1">
          <mxGeometry x="590" y="550" width="100" height="60" as="geometry"/>
        </mxCell>
        <mxCell id="ihPPklCjgYsT0sFvJ_W7-0" value="MQ生产者" style="rounded=1;whiteSpace=wrap;html=1;absoluteArcSize=1;arcSize=14;strokeWidth=2;" vertex="1" parent="x96REkmGthXuy-XDYIiv-1">
          <mxGeometry x="290" y="660" width="100" height="60" as="geometry"/>
        </mxCell>
        <mxCell id="ihPPklCjgYsT0sFvJ_W7-8" style="edgeStyle=orthogonalEdgeStyle;rounded=0;orthogonalLoop=1;jettySize=auto;html=1;" edge="1" parent="x96REkmGthXuy-XDYIiv-1" source="ihPPklCjgYsT0sFvJ_W7-7" target="ihPPklCjgYsT0sFvJ_W7-5">
          <mxGeometry relative="1" as="geometry"/>
        </mxCell>
        <mxCell id="ihPPklCjgYsT0sFvJ_W7-7" value="精准营销&lt;br&gt;达标结果查询" style="strokeWidth=2;html=1;shape=mxgraph.flowchart.start_1;whiteSpace=wrap;" vertex="1" parent="x96REkmGthXuy-XDYIiv-1">
          <mxGeometry x="590" y="10" width="100" height="60" as="geometry"/>
        </mxCell>
      </root>
    </mxGraphModel>
  </diagram>
  <diagram id="FahYcM2hlvHJRTWu6Oue" name="Page-8">
    <mxGraphModel dx="932" dy="488" grid="1" gridSize="10" guides="1" tooltips="1" connect="1" arrows="1" fold="1" page="1" pageScale="1" pageWidth="827" pageHeight="1169" math="0" shadow="0">
      <root>
        <mxCell id="qVeo9oD2H9MJLN5_TwQE-0"/>
        <mxCell id="qVeo9oD2H9MJLN5_TwQE-1" parent="qVeo9oD2H9MJLN5_TwQE-0"/>
      </root>
    </mxGraphModel>
  </diagram>
</mxfile>
